<?xml version="1.0" encoding="UTF-8" standalone="no"?>
<!-- Generator: Adobe Illustrator 16.0.0, SVG Export Plug-In . SVG Version: 6.00 Build 0)  -->

<svg
   xmlns:dc="http://purl.org/dc/elements/1.1/"
   xmlns:cc="http://creativecommons.org/ns#"
   xmlns:rdf="http://www.w3.org/1999/02/22-rdf-syntax-ns#"
   xmlns:svg="http://www.w3.org/2000/svg"
   xmlns="http://www.w3.org/2000/svg"
   xmlns:sodipodi="http://sodipodi.sourceforge.net/DTD/sodipodi-0.dtd"
   xmlns:inkscape="http://www.inkscape.org/namespaces/inkscape"
   version="1.1"
   id="Layer_1"
   x="0px"
   y="0px"
   width="1024"
   height="1024"
   viewBox="0 0 1024 1024"
   enable-background="new 0 0 512 512"
   xml:space="preserve"
   sodipodi:docname="cloud-2.svg"
   inkscape:version="0.92.3 (2405546, 2018-03-11)"
   inkscape:export-filename="C:\Users\TANGENTSOLUTIONS\Documents\logo.png"
   inkscape:export-xdpi="199.96877"
   inkscape:export-ydpi="199.96877"><metadata
   id="metadata831"><rdf:RDF><cc:Work
       rdf:about=""><dc:format>image/svg+xml</dc:format><dc:type
         rdf:resource="http://purl.org/dc/dcmitype/StillImage" /><dc:title></dc:title></cc:Work></rdf:RDF></metadata><defs
   id="defs829"><filter
     style="color-interpolation-filters:sRGB;"
     inkscape:label="Drop Shadow"
     id="filter1080"><feFlood
       flood-opacity="0.498039"
       flood-color="rgb(0,0,0)"
       result="flood"
       id="feFlood1070" /><feComposite
       in="flood"
       in2="SourceGraphic"
       operator="in"
       result="composite1"
       id="feComposite1072" /><feGaussianBlur
       in="composite1"
       stdDeviation="14.1"
       result="blur"
       id="feGaussianBlur1074" /><feOffset
       dx="6"
       dy="7.55208"
       result="offset"
       id="feOffset1076" /><feComposite
       in="SourceGraphic"
       in2="offset"
       operator="over"
       result="fbSourceGraphic"
       id="feComposite1078" /><feColorMatrix
       result="fbSourceGraphicAlpha"
       in="fbSourceGraphic"
       values="0 0 0 -1 0 0 0 0 -1 0 0 0 0 -1 0 0 0 0 1 0"
       id="feColorMatrix1082" /><feFlood
       id="feFlood1084"
       flood-opacity="0.498039"
       flood-color="rgb(0,0,0)"
       result="flood"
       in="fbSourceGraphic" /><feComposite
       in2="fbSourceGraphic"
       id="feComposite1086"
       in="flood"
       operator="in"
       result="composite1" /><feGaussianBlur
       id="feGaussianBlur1088"
       in="composite1"
       stdDeviation="14.1"
       result="blur" /><feOffset
       id="feOffset1090"
       dx="6"
       dy="7.6"
       result="offset" /><feComposite
       in2="offset"
       id="feComposite1092"
       in="fbSourceGraphic"
       operator="over"
       result="composite2" /></filter></defs><sodipodi:namedview
   pagecolor="#ffffff"
   bordercolor="#666666"
   borderopacity="1"
   objecttolerance="10"
   gridtolerance="10"
   guidetolerance="10"
   inkscape:pageopacity="0"
   inkscape:pageshadow="2"
   inkscape:window-width="1920"
   inkscape:window-height="1017"
   id="namedview827"
   showgrid="false"
   inkscape:zoom="0.4609375"
   inkscape:cx="200.37555"
   inkscape:cy="303.63397"
   inkscape:window-x="-8"
   inkscape:window-y="-8"
   inkscape:window-maximized="1"
   inkscape:current-layer="Layer_1"
   fit-margin-top="0"
   fit-margin-left="0"
   fit-margin-right="0"
   fit-margin-bottom="0" />

<g
   id="g840"
   transform="translate(256,256)"
   style="filter:url(#filter1080)"><path
     style="fill:#0a34fe;fill-opacity:0.42448982;stroke:none;stroke-opacity:1"
     id="path824"
     d="m 320,96 c 53.031,0 96,42.969 96,96 0,12.625 -2.594,24.625 -7.031,35.688 40.844,11.062 71.031,48 71.031,92.312 0,53.031 -42.969,96 -96,96 H 112 c -44.188,0 -80,-35.813 -80,-80 0,-44.187 35.813,-80 80,-80 2.453,0 4.75,0.5 7.141,0.719 -4.5,-10 -7.141,-21.031 -7.141,-32.719 0,-44.188 35.813,-80 80,-80 14.438,0 27.797,4.125 39.484,10.813 C 246.016,120.25 280.156,96 320,96 m 0,-32 C 279.062,64 241.469,83.344 217.656,115.063 209.266,113.031 200.703,112 192,112 130.25,112 80,162.25 80,224 c 0,1.563 0.031,3.094 0.094,4.625 C 33.828,242.375 0,285.313 0,336 0,397.75 50.25,448 112,448 h 272 c 70.594,0 128,-57.406 128,-128 0,-46.656 -25.656,-88.813 -65.156,-111.125 C 447.625,203.313 448,197.656 448,192 448,121.438 390.594,64 320,64 Z"
     inkscape:connector-curvature="0" /><text
     id="text835"
     y="388.74106"
     x="86.519325"
     style="font-style:normal;font-weight:normal;font-size:31.58950043px;line-height:1.25;font-family:sans-serif;letter-spacing:0px;word-spacing:0px;fill:#000000;fill-opacity:1;stroke:none;stroke-width:1.69229472"
     xml:space="preserve"><tspan
       style="font-style:normal;font-variant:normal;font-weight:bold;font-stretch:normal;font-size:162.46029663px;font-family:'Segoe Print';-inkscape-font-specification:'Segoe Print Bold';fill:#ff0000;fill-opacity:1;stroke-width:1.69229472"
       y="388.74106"
       x="86.519325"
       id="tspan833"
       sodipodi:role="line">SOS</tspan></text>
</g></svg>